<svg fill="none" height="24" viewBox="0 0 24 24" width="24" xmlns="http://www.w3.org/2000/svg"><path clip-rule="evenodd" d="m14.3749 4.83487c-.0549.0586-.1117.09158-.1408.10697-.0023.00184-.0147.01197-.0345.03929-.0278.03825-.0578.09328-.0869.16365-.0589.14196-.0938.29548-.1096.37916-.0014.00728-.0031.02124-.0031.04635v2.57023c0 .46808.1314.92676.3793 1.32383l5.0323 8.06165c.2081.3334.314.7392.2371 1.1274-.0819.413-.3647.7574-.8194.9054-1.4221.4626-4.1612.678-6.8293.678-2.66808 0-5.40721-.2154-6.82934-.678-.45466-.148-.73742-.4924-.81932-.9054-.07698-.3882.02893-.794.23703-1.1274l5.03236-8.06165c.24786-.39707.37927-.85575.37927-1.32383v-2.58134c0-.02118-.00124-.03232-.00208-.03749-.01307-.08066-.04467-.23948-.10216-.38419-.02853-.07181-.05746-.12467-.08263-.15857-.00966-.013-.01654-.02027-.02019-.02377-.02512-.01128-.06262-.03022-.10254-.05968-.03869-.02855-.13474-.10672-.18279-.24985-.05999-.17868-.01037-.34657.06904-.45717.06405-.08921.14052-.13475.17211-.15222.06796-.03755.13303-.05387.15859-.06007.0352-.00854.07057-.01473.10185-.01943.1198-.01803.2932-.03053.4846-.0399.3926-.01921.9394-.02861 1.483-.02866.5437-.00004 1.0942.00927 1.4942.02844.1959.00938.3726.02191.496.03942.0433.00614.1457.02067.2372.06196.0269.01217.081.03872.1364.0878.0535.04746.1564.16.1706.34143.015.19002-.0767.32391-.1363.38764zm-3.3899.52684c-.0146-.09027-.0475-.26598-.1111-.45879.3244-.00972.7118-.0147 1.103-.01474.4106-.00003.8195.00539 1.1581.01607-.0621.17985-.0973.34309-.1145.43396-.016.08468-.0205.1636-.0205.23208v2.57023c0 .65532.184 1.29746.531 1.85336l2.0507 3.28522c-.2027.1035-.3648.1131-.5211.0914-.1738-.024-.327-.0799-.5361-.1562-.0887-.0323-.1874-.0683-.302-.1071-.3526-.1193-.7848-.2312-1.3072-.1672-.5219.064-1.0815.2965-1.7153.7718-.4406.3304-.7867.4395-1.0509.4556-.26343.0162-.49682-.0569-.71878-.1802-.21872-.1215-.40615-.2791-.5995-.4417l-.03266-.0275c-.09426-.0792-.2044-.1709-.31248-.2416-.01411-.0092-.02987-.0193-.04718-.0297l2.0305-3.25282c.347-.5559.531-1.19804.531-1.85336v-2.58134c0-.05764-.0032-.12483-.015-.19747zm2.8697-.41081-.004-.00085c.0028.00053.004.00085.004.00085zm-5.3547 11.6609c.27614 0 .5-.2238.5-.5 0-.2761-.22386-.5-.5-.5s-.5.2239-.5.5c0 .2762.22386.5.5.5zm-1 1.25c0 .1381-.11193.25-.25.25s-.25-.1119-.25-.25.11193-.25.25-.25.25.1119.25.25zm4.75-.75c.1381 0 .25-.1119.25-.25s-.1119-.25-.25-.25-.25.1119-.25.25.1119.25.25.25zm2.25.75c0 .1381-.1119.25-.25.25s-.25-.1119-.25-.25.1119-.25.25-.25.25.1119.25.25zm-5 .25c.27614 0 .5-.2238.5-.5 0-.2761-.22386-.5-.5-.5s-.5.2239-.5.5c0 .2762.22386.5.5.5zm4.5-3c0 .2762-.2239.5-.5.5s-.5-.2238-.5-.5c0-.2761.2239-.5.5-.5s.5.2239.5.5zm1.75 2c.4142 0 .75-.3358.75-.75s-.3358-.75-.75-.75-.75.3358-.75.75.3358.75.75.75z" fill="#22202a" fill-rule="evenodd"/></svg>